<svg width="180" height="16" viewBox="0 0 180 16" fill="none" xmlns="http://www.w3.org/2000/svg">
<g clip-path="url(#clip0_190_1955)">
<path d="M12.5224 1.38544H10.6461C10.3575 1.38544 10.1235 1.63447 10.1235 1.94167V14.3819C10.1235 14.6891 10.3575 14.9381 10.6461 14.9381H12.5224C12.811 14.9381 13.0449 14.6891 13.0449 14.3819V1.94167C13.0449 1.63447 12.811 1.38544 12.5224 1.38544Z" fill="black"/>
<path d="M7.9832 11.8285H2.92139V1.94161C2.92139 1.63578 2.68806 1.38538 2.39882 1.38538H0.522572C0.235254 1.38538 0 1.63373 0 1.94161V14.3839C0 14.6897 0.233325 14.9401 0.522572 14.9401H7.9832C8.27052 14.9401 8.50577 14.6918 8.50577 14.3839V12.3848C8.50577 12.0789 8.27245 11.8285 7.9832 11.8285Z" fill="black"/>
<path d="M36.0073 4.49499C36.2947 4.49499 36.5299 4.24663 36.5299 3.93876V1.94167C36.5299 1.63584 36.2966 1.38544 36.0073 1.38544H28.5448C28.2575 1.38544 28.0222 1.63379 28.0222 1.94167V14.384C28.0222 14.6898 28.2555 14.9402 28.5448 14.9402H36.0073C36.2947 14.9402 36.5299 14.6918 36.5299 14.384V12.3848C36.5299 12.079 36.2966 11.8286 36.0073 11.8286H30.9455V9.71862H36.0073C36.2947 9.71862 36.5299 9.47026 36.5299 9.16239V7.16325C36.5299 6.85742 36.2966 6.60702 36.0073 6.60702H30.9455V4.49704H36.0073V4.49499Z" fill="black"/>
<path d="M25.4652 1.38543H23.5871C23.2998 1.38543 23.0645 1.63378 23.0645 1.94166V9.1398L18.1492 1.65841C18.0104 1.447 17.8021 1.38543 17.5707 1.38543C17.5418 1.37927 17.5129 1.38543 17.482 1.38543H15.6039C15.3166 1.38543 15.0813 1.63378 15.0813 1.94166V14.384C15.0813 14.6898 15.3146 14.9402 15.6039 14.9402H17.482C17.7694 14.9402 18.0046 14.6918 18.0046 14.384V6.86357L23.1301 14.6652C23.1493 14.6939 23.1686 14.7185 23.1898 14.7431C23.2785 14.854 23.4058 14.9279 23.5504 14.9402H25.4652C25.7526 14.9402 25.9878 14.6918 25.9878 14.384V1.94166C25.9878 1.63583 25.7545 1.38543 25.4652 1.38543Z" fill="black"/>
<path d="M50.6992 8.14846L50.3598 8.04378L50.6837 7.8919C51.5206 7.49782 52.5176 6.70965 52.5176 5.18464C52.5176 2.92278 50.6818 1.34235 48.0555 1.34235H43.2655C43.0419 1.34235 42.8606 1.53528 42.8606 1.77337V14.4989C42.8606 14.737 43.0419 14.9299 43.2655 14.9299H48.3177C49.7524 14.9299 50.9286 14.5297 51.7192 13.7723C52.4173 13.1032 52.801 12.157 52.801 11.1082C52.801 9.66116 52.0162 8.55486 50.6992 8.14641V8.14846ZM45.9536 6.65424V4.20354H47.7489C48.6648 4.20354 49.2799 4.71872 49.2799 5.48636C49.2799 6.254 48.6783 6.79175 47.7489 6.79175H45.9536V6.65424ZM48.013 12.0688H45.9536V9.41486H48.013C48.9425 9.41486 49.5441 9.92799 49.5441 10.7203C49.5441 11.5125 48.9425 12.0688 48.013 12.0688Z" fill="black"/>
<path d="M56.9737 1.42236H54.7697C54.546 1.42236 54.3647 1.61534 54.3647 1.85339V14.4989C54.3647 14.7369 54.546 14.9299 54.7697 14.9299H56.9737C57.1974 14.9299 57.3787 14.7369 57.3787 14.4989V1.85339C57.3787 1.61534 57.1974 1.42236 56.9737 1.42236Z" fill="black"/>
<path d="M63.7944 4.51959C61.0079 4.51959 58.7422 6.93129 58.7422 9.89716C58.7422 12.863 61.0079 15.2522 63.7944 15.2522C66.5808 15.2522 68.8465 12.8487 68.8465 9.89716C68.8465 6.94566 66.5808 4.51959 63.7944 4.51959ZM63.7944 12.2617C62.6316 12.2617 61.7561 11.2457 61.7561 9.89716C61.7561 8.54867 62.6316 7.5101 63.7944 7.5101C64.9571 7.5101 65.8326 8.53635 65.8326 9.89716C65.8326 11.258 64.9552 12.2617 63.7944 12.2617Z" fill="black"/>
<path d="M76.8547 8.31265L78.3086 6.37508C78.4475 6.19036 78.4224 5.92558 78.2508 5.77164C77.3194 4.94243 76.1219 4.52167 74.695 4.52167C71.9086 4.52167 69.6428 6.93336 69.6428 9.89924C69.6428 11.3319 70.1712 12.6763 71.1315 13.6841C72.0956 14.698 73.3915 15.2563 74.776 15.2563C76.0602 15.2563 77.3715 14.7678 78.2007 13.9837C78.3511 13.8421 78.3781 13.5999 78.2643 13.4213L76.9685 11.3873C76.336 11.9948 75.6804 12.2658 74.857 12.2658C73.5824 12.2658 72.6548 11.2703 72.6548 9.90129C72.6548 8.53227 73.5592 7.51422 74.857 7.51422C75.6649 7.51422 76.2704 7.75437 76.8547 8.3147V8.31265Z" fill="black"/>
<path d="M86.3149 9.56261L86.2667 9.48461L86.3169 9.40867L88.8449 5.52122C88.9317 5.38781 88.9413 5.2195 88.87 5.07583C88.7986 4.9301 88.6636 4.84389 88.5113 4.84389H85.8194C85.6805 4.84389 85.5533 4.91778 85.4781 5.04093L83.5845 8.17511L83.5459 8.23874H82.574V1.85339C82.574 1.6153 82.3928 1.42236 82.1691 1.42236H79.967C79.7433 1.42236 79.562 1.6153 79.562 1.85339V14.4968C79.562 14.7349 79.7433 14.9279 79.967 14.9279H82.1691C82.3928 14.9279 82.574 14.7349 82.574 14.4968V11.0999H83.5864L83.625 11.1636L85.7442 14.7267C85.8194 14.8519 85.9466 14.9279 86.0874 14.9279H88.8854C89.0377 14.9279 89.1708 14.8437 89.2421 14.7C89.3135 14.5584 89.3077 14.3922 89.2228 14.2587L86.3149 9.56056V9.56261Z" fill="black"/>
<path d="M96.0451 8.04991C96.1165 8.10532 96.2013 8.13406 96.2881 8.13406C96.4115 8.13406 96.5253 8.07659 96.6024 7.97396L97.8038 6.37301C97.9426 6.18828 97.9175 5.92351 97.7459 5.76957C96.8145 4.94036 95.6171 4.51959 94.1901 4.51959C91.4037 4.51959 89.1379 6.93129 89.1379 9.89716C89.1379 11.3298 89.6663 12.6742 90.6266 13.682C91.5907 14.6959 92.8866 15.2542 94.2711 15.2542C95.5554 15.2542 96.8666 14.7657 97.6958 13.9817C97.8462 13.84 97.8732 13.5978 97.7594 13.4193L96.7104 11.7732C96.6352 11.6541 96.5137 11.5864 96.3787 11.5864C96.29 11.5864 96.2052 11.6151 96.1319 11.6705C95.6074 12.0687 95.027 12.2637 94.354 12.2637C93.0794 12.2637 92.1538 11.2682 92.1538 9.89921C92.1538 8.53019 93.0582 7.51215 94.354 7.51215C95.0231 7.51215 95.5611 7.68456 96.0471 8.05196L96.0451 8.04991Z" fill="black"/>
<path d="M104.719 4.70227C103.625 4.70227 102.792 5.22976 102.314 6.22728L102.071 6.73425V1.85339C102.071 1.6153 101.89 1.42236 101.666 1.42236H99.464C99.2403 1.42236 99.0591 1.6153 99.0591 1.85339V14.4968C99.0591 14.7349 99.2403 14.9279 99.464 14.9279H101.666C101.89 14.9279 102.071 14.7349 102.071 14.4968V9.54003C102.071 8.43578 102.702 7.69483 103.643 7.69483C104.584 7.69483 105.193 8.43578 105.193 9.54003V14.4968C105.193 14.7349 105.374 14.9279 105.598 14.9279H107.8C108.024 14.9279 108.205 14.7349 108.205 14.4968V9.06385C108.205 6.37301 106.869 4.70227 104.717 4.70227H104.719Z" fill="black"/>
<path d="M119.052 4.84389H116.85C116.626 4.84389 116.445 5.03682 116.445 5.27492V5.9625L116.215 5.65668C115.648 4.90136 114.848 4.51959 113.838 4.51959C111.24 4.51959 109.354 6.78146 109.354 9.89716C109.354 11.4304 109.831 12.8158 110.697 13.799C111.524 14.737 112.638 15.2542 113.838 15.2542C114.808 15.2542 115.606 14.8355 116.215 14.0083L116.445 13.6964V14.4989C116.445 14.737 116.626 14.9299 116.85 14.9299H119.052C119.276 14.9299 119.457 14.737 119.457 14.4989V5.27492C119.457 5.03682 119.276 4.84389 119.052 4.84389ZM114.405 12.2617C113.242 12.2617 112.367 11.2457 112.367 9.89716C112.367 8.54867 113.242 7.5101 114.405 7.5101C115.568 7.5101 116.443 8.53635 116.443 9.89716C116.443 11.258 115.566 12.2617 114.405 12.2617Z" fill="black"/>
<path d="M123.059 0C122.581 0 122.137 0.207303 121.811 0.587017C121.485 0.966731 121.321 1.48191 121.366 1.99914C121.437 2.85504 122.097 3.557 122.901 3.63294C122.953 3.63704 123.007 3.64115 123.059 3.64115C123.568 3.64115 124.05 3.40511 124.378 2.99461C124.704 2.58616 124.839 2.06482 124.756 1.52501C124.638 0.767638 124.06 0.151886 123.348 0.0266826C123.252 0.0102625 123.155 0.00205251 123.059 0.00205251V0Z" fill="black"/>
<path d="M124.172 4.84393H121.967C121.744 4.84393 121.562 5.03691 121.562 5.27496V14.4969C121.562 14.7349 121.744 14.9279 121.967 14.9279H124.172C124.395 14.9279 124.576 14.7349 124.576 14.4969V5.27496C124.576 5.03691 124.395 4.84393 124.172 4.84393Z" fill="black"/>
<path d="M132.342 4.51959C131.246 4.51959 130.415 5.04709 129.937 6.04461L129.694 6.55157V5.27492C129.694 5.03682 129.513 4.84389 129.289 4.84389H127.087C126.863 4.84389 126.682 5.03682 126.682 5.27492V14.4968C126.682 14.7349 126.863 14.9279 127.087 14.9279H129.289C129.513 14.9279 129.694 14.7349 129.694 14.4968V9.3553C129.694 8.25105 130.325 7.5101 131.266 7.5101C132.207 7.5101 132.816 8.25105 132.816 9.3553V14.4968C132.816 14.7349 132.997 14.9279 133.221 14.9279H135.423C135.647 14.9279 135.828 14.7349 135.828 14.4968V8.88117C135.828 6.19033 134.492 4.51959 132.34 4.51959H132.342Z" fill="black"/>
<path d="M149.367 4.52375C149.207 4.68795 148.958 4.67358 148.804 4.50322C148.183 3.81358 147.149 3.27787 145.998 3.27787C144.513 3.27787 143.59 3.97573 143.59 5.04098C143.59 7.93296 150.489 6.62141 150.489 11.297C150.489 13.6143 148.715 15.1742 145.959 15.1742C143.842 15.1742 142.404 14.3655 141.524 13.2551C141.389 13.0848 141.403 12.8302 141.555 12.6784L142.247 11.9867C142.406 11.8286 142.654 11.8389 142.801 12.0072C143.613 12.9452 144.708 13.4296 145.979 13.4296C147.674 13.4296 148.638 12.6496 148.638 11.4181C148.638 8.21826 141.738 9.63244 141.738 5.1005C141.738 2.98847 143.493 1.53119 146.056 1.53119C147.801 1.53119 149.247 2.27214 150.061 3.24914C150.2 3.41539 150.188 3.67195 150.038 3.82589L149.365 4.51964L149.367 4.52375Z" fill="black"/>
<path d="M156.621 6.55984C154.791 6.55984 153.518 8.0787 153.518 10.006C153.518 11.9333 154.791 13.4727 156.602 13.4727C157.443 13.4727 158.189 13.2264 158.771 12.7605C158.952 12.6147 159.209 12.6476 159.34 12.8446L159.778 13.5035C159.895 13.68 159.868 13.9242 159.714 14.0659C158.958 14.7514 157.797 15.1742 156.544 15.1742C153.846 15.1742 151.802 12.8569 151.802 10.006C151.802 7.15507 153.864 4.85626 156.563 4.85626C157.876 4.85626 158.977 5.27292 159.747 5.9523C159.913 6.09803 159.934 6.36075 159.799 6.53932L159.3 7.19612C159.166 7.37058 158.929 7.40137 158.76 7.26591C158.187 6.8123 157.473 6.55984 156.621 6.55984Z" fill="black"/>
<path d="M168.449 13.3906C167.736 14.4784 166.619 15.1762 165.212 15.1762C162.707 15.1762 160.74 12.9821 160.74 10.008C160.74 7.03393 162.63 4.85828 165.212 4.85828C166.619 4.85828 167.736 5.51508 168.449 6.58238V5.52329C168.449 5.29136 168.625 5.10458 168.843 5.10458H169.772C169.99 5.10458 170.166 5.29136 170.166 5.52329V14.5112C170.166 14.7432 169.99 14.9299 169.772 14.9299H168.843C168.625 14.9299 168.449 14.7432 168.449 14.5112V13.3906ZM168.449 10.006C168.449 8.07866 167.196 6.55981 165.462 6.55981C163.729 6.55981 162.456 8.07866 162.456 10.006C162.456 11.9333 163.729 13.4727 165.462 13.4727C167.196 13.4727 168.449 11.9127 168.449 10.006Z" fill="black"/>
<path d="M173.247 14.9279H172.317C172.1 14.9279 171.924 14.7411 171.924 14.5092V5.52127C171.924 5.28934 172.1 5.10256 172.317 5.10256H173.247C173.465 5.10256 173.64 5.28934 173.64 5.52127V6.31354C174.219 5.38991 175.202 4.85626 176.415 4.85626C178.592 4.85626 180 6.43669 180 8.91818V14.5092C180 14.7411 179.824 14.9279 179.606 14.9279H178.677C178.459 14.9279 178.284 14.7411 178.284 14.5092V9.20553C178.284 7.58404 177.397 6.55984 175.952 6.55984C174.508 6.55984 173.64 7.5861 173.64 9.20553V14.5092C173.64 14.7411 173.465 14.9279 173.247 14.9279Z" fill="black"/>
</g>
<defs>
<clipPath id="clip0_190_1955">
<rect width="180" height="16" fill="white"/>
</clipPath>
</defs>
</svg>
