<svg width="180" height="16" viewBox="0 0 180 16" fill="none" xmlns="http://www.w3.org/2000/svg">
<g clip-path="url(#clip0_190_2183)">
<path d="M12.5224 1.38538H10.6461C10.3575 1.38538 10.1235 1.63441 10.1235 1.94161V14.3819C10.1235 14.6891 10.3575 14.9381 10.6461 14.9381H12.5224C12.811 14.9381 13.0449 14.6891 13.0449 14.3819V1.94161C13.0449 1.63441 12.811 1.38538 12.5224 1.38538Z" fill="white"/>
<path d="M7.9832 11.8285H2.92139V1.94161C2.92139 1.63578 2.68806 1.38538 2.39882 1.38538H0.522572C0.235254 1.38538 0 1.63373 0 1.94161V14.3839C0 14.6897 0.233325 14.9401 0.522572 14.9401H7.9832C8.27052 14.9401 8.50577 14.6918 8.50577 14.3839V12.3848C8.50577 12.0789 8.27245 11.8285 7.9832 11.8285Z" fill="white"/>
<path d="M36.0073 4.49493C36.2947 4.49493 36.5299 4.24657 36.5299 3.9387V1.94161C36.5299 1.63578 36.2966 1.38538 36.0073 1.38538H28.5448C28.2575 1.38538 28.0222 1.63373 28.0222 1.94161V14.3839C28.0222 14.6897 28.2555 14.9401 28.5448 14.9401H36.0073C36.2947 14.9401 36.5299 14.6918 36.5299 14.3839V12.3848C36.5299 12.0789 36.2966 11.8285 36.0073 11.8285H30.9455V9.71856H36.0073C36.2947 9.71856 36.5299 9.4702 36.5299 9.16233V7.16319C36.5299 6.85736 36.2966 6.60696 36.0073 6.60696H30.9455V4.49698H36.0073V4.49493Z" fill="white"/>
<path d="M25.4652 1.38543H23.5871C23.2998 1.38543 23.0645 1.63378 23.0645 1.94166V9.1398L18.1492 1.65841C18.0104 1.447 17.8021 1.38543 17.5707 1.38543C17.5418 1.37927 17.5129 1.38543 17.482 1.38543H15.6039C15.3166 1.38543 15.0813 1.63378 15.0813 1.94166V14.384C15.0813 14.6898 15.3146 14.9402 15.6039 14.9402H17.482C17.7694 14.9402 18.0046 14.6918 18.0046 14.384V6.86357L23.1301 14.6652C23.1493 14.6939 23.1686 14.7185 23.1898 14.7431C23.2785 14.854 23.4058 14.9279 23.5504 14.9402H25.4652C25.7526 14.9402 25.9878 14.6918 25.9878 14.384V1.94166C25.9878 1.63583 25.7545 1.38543 25.4652 1.38543Z" fill="white"/>
<path d="M50.6992 8.1484L50.3598 8.04372L50.6837 7.89184C51.5206 7.49776 52.5176 6.70959 52.5176 5.18458C52.5176 2.92272 50.6818 1.34229 48.0555 1.34229H43.2655C43.0419 1.34229 42.8606 1.53522 42.8606 1.77331V14.4989C42.8606 14.7369 43.0419 14.9299 43.2655 14.9299H48.3177C49.7524 14.9299 50.9286 14.5296 51.7192 13.7723C52.4173 13.1032 52.801 12.1569 52.801 11.1081C52.801 9.6611 52.0162 8.5548 50.6992 8.14635V8.1484ZM45.9536 6.65417V4.20348H47.7489C48.6648 4.20348 49.2799 4.71866 49.2799 5.4863C49.2799 6.25394 48.6783 6.79169 47.7489 6.79169H45.9536V6.65417ZM48.013 12.0687H45.9536V9.4148H48.013C48.9425 9.4148 49.5441 9.92792 49.5441 10.7202C49.5441 11.5125 48.9425 12.0687 48.013 12.0687Z" fill="white"/>
<path d="M56.9737 1.42236H54.7697C54.546 1.42236 54.3647 1.61534 54.3647 1.85339V14.4989C54.3647 14.7369 54.546 14.9299 54.7697 14.9299H56.9737C57.1974 14.9299 57.3787 14.7369 57.3787 14.4989V1.85339C57.3787 1.61534 57.1974 1.42236 56.9737 1.42236Z" fill="white"/>
<path d="M63.7944 4.51965C61.0079 4.51965 58.7422 6.93135 58.7422 9.89722C58.7422 12.8631 61.0079 15.2522 63.7944 15.2522C66.5808 15.2522 68.8465 12.8487 68.8465 9.89722C68.8465 6.94572 66.5808 4.51965 63.7944 4.51965ZM63.7944 12.2617C62.6316 12.2617 61.7561 11.2457 61.7561 9.89722C61.7561 8.54873 62.6316 7.51016 63.7944 7.51016C64.9571 7.51016 65.8326 8.53641 65.8326 9.89722C65.8326 11.258 64.9552 12.2617 63.7944 12.2617Z" fill="white"/>
<path d="M76.8547 8.31271L78.3086 6.37514C78.4475 6.19042 78.4224 5.92564 78.2508 5.77171C77.3194 4.94249 76.1219 4.52173 74.695 4.52173C71.9086 4.52173 69.6428 6.93342 69.6428 9.8993C69.6428 11.3319 70.1712 12.6763 71.1315 13.6841C72.0956 14.6981 73.3915 15.2563 74.776 15.2563C76.0602 15.2563 77.3715 14.7678 78.2007 13.9838C78.3511 13.8422 78.3781 13.6 78.2643 13.4214L76.9685 11.3874C76.336 11.9949 75.6804 12.2658 74.857 12.2658C73.5824 12.2658 72.6548 11.2704 72.6548 9.90135C72.6548 8.53233 73.5592 7.51428 74.857 7.51428C75.6649 7.51428 76.2704 7.75443 76.8547 8.31476V8.31271Z" fill="white"/>
<path d="M86.3149 9.56261L86.2667 9.48461L86.3169 9.40867L88.8449 5.52122C88.9317 5.38781 88.9413 5.2195 88.87 5.07583C88.7986 4.9301 88.6636 4.84389 88.5113 4.84389H85.8194C85.6805 4.84389 85.5533 4.91778 85.4781 5.04093L83.5845 8.17511L83.5459 8.23874H82.574V1.85339C82.574 1.6153 82.3928 1.42236 82.1691 1.42236H79.967C79.7433 1.42236 79.562 1.6153 79.562 1.85339V14.4968C79.562 14.7349 79.7433 14.9279 79.967 14.9279H82.1691C82.3928 14.9279 82.574 14.7349 82.574 14.4968V11.0999H83.5864L83.625 11.1636L85.7442 14.7267C85.8194 14.8519 85.9466 14.9279 86.0874 14.9279H88.8854C89.0377 14.9279 89.1708 14.8437 89.2421 14.7C89.3135 14.5584 89.3077 14.3922 89.2228 14.2587L86.3149 9.56056V9.56261Z" fill="white"/>
<path d="M96.0451 8.04997C96.1165 8.10538 96.2013 8.13412 96.2881 8.13412C96.4115 8.13412 96.5253 8.07665 96.6024 7.97402L97.8038 6.37307C97.9426 6.18834 97.9175 5.92357 97.7459 5.76963C96.8145 4.94042 95.6171 4.51965 94.1901 4.51965C91.4037 4.51965 89.1379 6.93135 89.1379 9.89722C89.1379 11.3299 89.6663 12.6743 90.6266 13.682C91.5907 14.696 92.8866 15.2543 94.2711 15.2543C95.5554 15.2543 96.8666 14.7658 97.6958 13.9817C97.8462 13.8401 97.8732 13.5979 97.7594 13.4193L96.7104 11.7732C96.6352 11.6542 96.5137 11.5864 96.3787 11.5864C96.29 11.5864 96.2052 11.6152 96.1319 11.6706C95.6074 12.0688 95.027 12.2638 94.354 12.2638C93.0794 12.2638 92.1538 11.2683 92.1538 9.89928C92.1538 8.53025 93.0582 7.51221 94.354 7.51221C95.0231 7.51221 95.5611 7.68462 96.0471 8.05202L96.0451 8.04997Z" fill="white"/>
<path d="M104.719 4.70227C103.625 4.70227 102.792 5.22976 102.314 6.22728L102.071 6.73425V1.85339C102.071 1.6153 101.89 1.42236 101.666 1.42236H99.464C99.2403 1.42236 99.0591 1.6153 99.0591 1.85339V14.4968C99.0591 14.7349 99.2403 14.9279 99.464 14.9279H101.666C101.89 14.9279 102.071 14.7349 102.071 14.4968V9.54003C102.071 8.43578 102.702 7.69483 103.643 7.69483C104.584 7.69483 105.193 8.43578 105.193 9.54003V14.4968C105.193 14.7349 105.374 14.9279 105.598 14.9279H107.8C108.024 14.9279 108.205 14.7349 108.205 14.4968V9.06385C108.205 6.37301 106.869 4.70227 104.717 4.70227H104.719Z" fill="white"/>
<path d="M119.052 4.84395H116.85C116.626 4.84395 116.445 5.03689 116.445 5.27498V5.96257L116.215 5.65674C115.648 4.90142 114.848 4.51965 113.838 4.51965C111.24 4.51965 109.354 6.78152 109.354 9.89722C109.354 11.4304 109.831 12.8159 110.697 13.799C111.524 14.737 112.638 15.2543 113.838 15.2543C114.808 15.2543 115.606 14.8356 116.215 14.0084L116.445 13.6964V14.4989C116.445 14.737 116.626 14.93 116.85 14.93H119.052C119.276 14.93 119.457 14.737 119.457 14.4989V5.27498C119.457 5.03689 119.276 4.84395 119.052 4.84395ZM114.405 12.2617C113.242 12.2617 112.367 11.2457 112.367 9.89722C112.367 8.54873 113.242 7.51016 114.405 7.51016C115.568 7.51016 116.443 8.53641 116.443 9.89722C116.443 11.258 115.566 12.2617 114.405 12.2617Z" fill="white"/>
<path d="M123.059 0C122.581 0 122.137 0.207303 121.811 0.587017C121.485 0.966731 121.321 1.48191 121.366 1.99914C121.437 2.85504 122.097 3.557 122.901 3.63294C122.953 3.63704 123.007 3.64115 123.059 3.64115C123.568 3.64115 124.05 3.40511 124.378 2.99461C124.704 2.58616 124.839 2.06482 124.756 1.52501C124.638 0.767638 124.06 0.151886 123.348 0.0266826C123.252 0.0102625 123.155 0.00205251 123.059 0.00205251V0Z" fill="white"/>
<path d="M124.172 4.84387H121.967C121.744 4.84387 121.562 5.03685 121.562 5.2749V14.4968C121.562 14.7349 121.744 14.9278 121.967 14.9278H124.172C124.395 14.9278 124.576 14.7349 124.576 14.4968V5.2749C124.576 5.03685 124.395 4.84387 124.172 4.84387Z" fill="white"/>
<path d="M132.342 4.51965C131.246 4.51965 130.415 5.04715 129.937 6.04467L129.694 6.55164V5.27498C129.694 5.03689 129.513 4.84395 129.289 4.84395H127.087C126.863 4.84395 126.682 5.03689 126.682 5.27498V14.4969C126.682 14.735 126.863 14.9279 127.087 14.9279H129.289C129.513 14.9279 129.694 14.735 129.694 14.4969V9.35536C129.694 8.25111 130.325 7.51016 131.266 7.51016C132.207 7.51016 132.816 8.25111 132.816 9.35536V14.4969C132.816 14.735 132.997 14.9279 133.221 14.9279H135.423C135.647 14.9279 135.828 14.735 135.828 14.4969V8.88123C135.828 6.19039 134.492 4.51965 132.34 4.51965H132.342Z" fill="white"/>
<path d="M149.367 4.52368C149.207 4.68789 148.958 4.67352 148.804 4.50316C148.183 3.81352 147.149 3.27781 145.998 3.27781C144.513 3.27781 143.59 3.97566 143.59 5.04092C143.59 7.9329 150.489 6.62135 150.489 11.297C150.489 13.6142 148.715 15.1741 145.959 15.1741C143.842 15.1741 142.404 14.3655 141.524 13.2551C141.389 13.0847 141.403 12.8302 141.555 12.6783L142.247 11.9866C142.406 11.8286 142.654 11.8388 142.801 12.0071C143.613 12.9451 144.708 13.4295 145.979 13.4295C147.674 13.4295 148.638 12.6496 148.638 11.4181C148.638 8.2182 141.738 9.63238 141.738 5.10044C141.738 2.98841 143.493 1.53113 146.056 1.53113C147.801 1.53113 149.247 2.27208 150.061 3.24908C150.2 3.41533 150.188 3.67189 150.038 3.82583L149.365 4.51958L149.367 4.52368Z" fill="white"/>
<path d="M156.621 6.55978C154.791 6.55978 153.518 8.07864 153.518 10.0059C153.518 11.9332 154.791 13.4726 156.602 13.4726C157.443 13.4726 158.189 13.2263 158.771 12.7604C158.952 12.6147 159.209 12.6475 159.34 12.8446L159.778 13.5034C159.895 13.6799 159.868 13.9242 159.714 14.0658C158.958 14.7513 157.797 15.1742 156.544 15.1742C153.846 15.1742 151.802 12.8569 151.802 10.0059C151.802 7.15501 153.864 4.8562 156.563 4.8562C157.876 4.8562 158.977 5.27286 159.747 5.95224C159.913 6.09797 159.934 6.36069 159.799 6.53926L159.3 7.19606C159.166 7.37052 158.929 7.40131 158.76 7.26585C158.187 6.81224 157.473 6.55978 156.621 6.55978Z" fill="white"/>
<path d="M168.449 13.3906C167.736 14.4784 166.619 15.1762 165.212 15.1762C162.707 15.1762 160.74 12.9821 160.74 10.008C160.74 7.03393 162.63 4.85828 165.212 4.85828C166.619 4.85828 167.736 5.51508 168.449 6.58238V5.52329C168.449 5.29136 168.625 5.10458 168.843 5.10458H169.772C169.99 5.10458 170.166 5.29136 170.166 5.52329V14.5112C170.166 14.7432 169.99 14.9299 169.772 14.9299H168.843C168.625 14.9299 168.449 14.7432 168.449 14.5112V13.3906ZM168.449 10.006C168.449 8.07866 167.196 6.55981 165.462 6.55981C163.729 6.55981 162.456 8.07866 162.456 10.006C162.456 11.9333 163.729 13.4727 165.462 13.4727C167.196 13.4727 168.449 11.9127 168.449 10.006Z" fill="white"/>
<path d="M173.247 14.9279H172.317C172.1 14.9279 171.924 14.7411 171.924 14.5091V5.52121C171.924 5.28928 172.1 5.1025 172.317 5.1025H173.247C173.465 5.1025 173.64 5.28928 173.64 5.52121V6.31348C174.219 5.38985 175.202 4.8562 176.415 4.8562C178.592 4.8562 180 6.43663 180 8.91811V14.5091C180 14.7411 179.824 14.9279 179.606 14.9279H178.677C178.459 14.9279 178.284 14.7411 178.284 14.5091V9.20546C178.284 7.58398 177.397 6.55978 175.952 6.55978C174.508 6.55978 173.64 7.58604 173.64 9.20546V14.5091C173.64 14.7411 173.465 14.9279 173.247 14.9279Z" fill="white"/>
</g>
<defs>
<clipPath id="clip0_190_2183">
<rect width="180" height="16" fill="white"/>
</clipPath>
</defs>
</svg>
