<svg width="36" height="36" viewBox="0 0 36 36" fill="none" xmlns="http://www.w3.org/2000/svg">
<path d="M10.5793 17.0906C10.8032 16.2843 11.162 15.6212 11.6652 15.0765C11.6285 14.9842 11.6084 14.8835 11.6084 14.7805V12.5675C9.26255 14.0085 8.53073 16.2191 8.346 18.2439L10.1779 17.196C10.3022 17.1249 10.4408 17.0894 10.5793 17.0906Z" fill="#427DFA"/>
<path d="M14.217 25.8514C15.0862 26.4553 16.0679 26.846 17.104 27.0035L17.1277 21.2454C17.1277 20.9589 16.9773 20.6925 16.7286 20.548L10.9807 17.1983C10.8563 17.1261 10.7178 17.0894 10.5792 17.0894C10.4407 17.0894 10.3022 17.1237 10.1778 17.1948L8.3459 18.2426L4.40499 20.4959C4.15513 20.6392 4 20.9056 4 21.1933V27.8453C4 28.1307 4.15157 28.3948 4.39788 28.538L10.1174 31.8865C10.3661 32.0322 10.6728 32.0334 10.9227 31.8901L16.2171 28.8625C15.0791 28.6102 13.9991 28.1354 13.0305 27.4534C12.5509 27.116 12.4597 26.4316 12.8576 25.9781C13.1986 25.5885 13.7919 25.553 14.217 25.849V25.8514ZM10.5496 24.5454L10.5283 29.818L5.97283 27.1633L5.99414 21.8907L10.571 19.2728L15.1265 21.9274L10.5496 24.5454Z" fill="#00A7FF"/>
<path d="M22.1331 12.1567C23.02 12.4207 23.9247 12.9038 24.7371 13.529V8.12851C24.7371 7.84197 24.5843 7.57674 24.3357 7.43347L18.5735 4.10745C18.3248 3.96418 18.0193 3.96418 17.7706 4.10745L12.0096 7.43347C11.7609 7.57674 11.6082 7.84197 11.6082 8.12851V14.7805C11.6082 14.8836 11.6283 14.983 11.665 15.0766C11.7302 15.2423 11.8498 15.3844 12.0096 15.4756L17.7706 18.8016C18.0193 18.9449 18.3248 18.9449 18.5735 18.8016L24.1047 15.6082C23.2841 14.8196 22.338 14.2986 21.5623 14.0677C21.0342 13.9103 20.7346 13.3549 20.8909 12.8269C21.0484 12.2988 21.6038 11.998 22.1319 12.1555L22.1331 12.1567ZM18.172 11.4545V16.7271L13.6059 14.0914V8.81882L18.172 6.18192L22.7382 8.81882L18.172 11.4545Z" fill="#00CC8B"/>
<path d="M26.1451 14.8765C25.7331 14.3828 25.2535 13.9269 24.736 13.529C23.9236 12.9039 23.0189 12.4208 22.132 12.1567C21.6039 11.9992 21.0485 12.3 20.891 12.8281C20.7335 13.3562 21.0343 13.9115 21.5624 14.069C22.338 14.2999 23.2842 14.8209 24.1048 15.6094C24.5749 16.0606 25.0036 16.5993 25.3352 17.2221L25.3731 17.2008C25.6217 17.0575 25.9273 17.0575 26.1759 17.2008L27.7959 18.1362C27.5164 16.9593 26.9634 15.8569 26.1463 14.8789L26.1451 14.8765Z" fill="#00A7FF"/>
<path d="M31.9372 20.5243L26.1762 17.1983C25.9276 17.055 25.622 17.055 25.3734 17.1983L25.3355 17.2196L19.6112 20.5243C19.3625 20.6676 19.2098 20.9328 19.2098 21.2193V27.0023C19.906 26.8957 20.5775 26.6838 21.2074 26.3724V21.9096L22.2164 21.3271H22.2294L25.7736 19.281L25.9856 19.403L27.9833 20.5563C27.9833 20.5563 27.9833 20.5515 27.9833 20.5492L29.3309 21.3271L30.3398 21.9096L30.3327 21.9132L30.3398 21.9167L25.7736 24.5454V29.818L22.5136 27.9353C21.7605 28.3592 20.9552 28.6694 20.1168 28.8589L25.3722 31.8924C25.6209 32.0357 25.9264 32.0357 26.175 31.8924L31.936 28.5664C32.1847 28.4231 32.3375 28.1579 32.3375 27.8714V21.2193C32.3375 20.9328 32.1847 20.6676 31.936 20.5243H31.9372Z" fill="#427DFA"/>
<path d="M23.5068 26.0753C23.1907 25.6241 22.5678 25.5152 22.1166 25.8325C21.8253 26.0374 21.5222 26.2174 21.2072 26.3725C20.5772 26.6839 19.9058 26.8958 19.2095 27.0024C18.8625 27.0557 18.5096 27.0829 18.1532 27.0829C17.7968 27.0829 17.4486 27.0557 17.1028 27.0036C16.0525 26.8437 15.0578 26.4447 14.1791 25.8254C13.7291 25.5081 13.1063 25.6159 12.7889 26.0658C12.4715 26.5157 12.5793 27.1386 13.0293 27.4559C13.9979 28.1391 15.0767 28.6127 16.2159 28.8649C16.8459 29.0046 17.4948 29.0769 18.1532 29.0769C18.8116 29.0769 19.4783 29.0023 20.1165 28.859C20.9549 28.6707 21.7602 28.3605 22.5133 27.9354C22.7691 27.791 23.0201 27.6347 23.2629 27.4642C23.7141 27.148 23.8218 26.5252 23.5056 26.0741L23.5068 26.0753Z" fill="#00CC8B"/>
</svg>
